<?xml version="1.0" standalone="no"?>
<!DOCTYPE svg PUBLIC "-//W3C//DTD SVG 20010904//EN"
 "http://www.w3.org/TR/2001/REC-SVG-20010904/DTD/svg10.dtd">
<svg version="1.0" xmlns="http://www.w3.org/2000/svg"
 width="1280.000000pt" height="720.000000pt" viewBox="0 0 1280.000000 720.000000"
 preserveAspectRatio="xMidYMid meet">
<metadata>
Created by potrace 1.15, written by Peter Selinger 2001-2017
</metadata>
<g transform="translate(0.000000,720.000000) scale(0.100000,-0.100000)"
fill="#000000" stroke="none">
<path d="M9123 6977 c-23 -8 -33 -17 -33 -32 0 -15 -2 -17 -9 -6 -6 10 -10 10
-13 1 -5 -15 -74 -42 -105 -42 -13 0 -23 -4 -23 -9 0 -5 7 -9 15 -9 8 0 15 -4
15 -10 0 -5 -24 -11 -52 -11 -29 -1 -44 -4 -33 -6 11 -3 23 -11 27 -18 4 -7
20 -11 35 -9 24 4 25 3 8 -5 -19 -9 -19 -10 3 -10 12 -1 22 -6 22 -11 0 -6
-16 -10 -35 -8 -19 1 -35 6 -35 10 0 4 -10 7 -22 7 -20 -1 -20 -2 -4 -6 15 -4
16 -7 5 -14 -11 -7 -9 -9 8 -9 12 0 25 -5 29 -11 4 -8 9 -7 15 2 7 11 9 9 9
-6 0 -17 -6 -21 -32 -19 -18 1 -23 -1 -10 -3 12 -2 20 -9 17 -14 -4 -5 -1 -9
4 -9 6 0 11 -10 11 -22 0 -19 2 -20 10 -8 8 13 10 12 10 -2 0 -13 -8 -18 -27
-19 l-28 -1 28 -11 c40 -16 33 -24 -18 -21 -24 2 -48 -2 -51 -8 -5 -7 2 -9 19
-6 15 3 24 1 21 -4 -3 -5 5 -6 18 -3 18 5 25 2 25 -8 0 -8 -5 -13 -11 -11 -16
5 -96 12 -96 7 0 -1 18 -11 40 -20 22 -10 40 -21 40 -26 0 -4 5 -5 10 -2 6 3
10 -1 10 -9 0 -9 -7 -16 -15 -16 -8 0 -15 4 -15 9 0 5 -10 7 -22 3 l-22 -5 22
-8 c12 -5 22 -13 22 -19 0 -6 -4 -9 -9 -6 -5 4 -12 0 -14 -6 -4 -10 -6 -10 -6
0 -1 15 -117 17 -127 1 -3 -6 -17 -8 -31 -4 -16 4 -22 2 -18 -5 4 -6 -10 -10
-39 -10 -25 0 -46 -4 -46 -10 0 -5 23 -10 50 -10 29 0 50 -5 50 -11 0 -5 -5
-7 -11 -4 -5 4 -25 1 -42 -6 -32 -14 -31 -14 53 -25 59 -8 91 -8 105 -1 18 9
19 9 6 -6 -12 -15 -11 -17 8 -17 11 0 21 -5 21 -11 0 -8 4 -8 14 0 12 10 13 8
9 -8 -3 -13 -14 -21 -27 -21 -18 0 -19 -2 -6 -11 12 -9 11 -9 -5 -4 -39 14
-90 25 -115 24 -17 -1 -19 -3 -7 -6 9 -2 17 -8 17 -11 0 -9 -70 -7 -94 3 -15
6 -17 5 -11 -5 5 -8 4 -11 -3 -6 -6 3 -28 3 -49 -2 -25 -6 -48 -5 -67 3 -18 8
-42 9 -62 5 -23 -5 -39 -3 -51 6 -12 9 -14 13 -5 14 23 0 58 34 54 53 -3 16 6
21 38 18 12 -2 12 0 2 7 -11 7 -10 10 3 16 9 3 28 6 41 6 13 0 24 5 24 10 0
14 -18 12 -68 -7 -59 -22 -71 -7 -31 38 17 19 35 33 41 31 5 -1 8 3 6 9 -2 7
-14 13 -26 14 -11 1 -19 -2 -15 -7 7 -12 -33 -55 -68 -72 -22 -11 -26 -11 -23
-1 4 10 -4 9 -30 -3 -20 -9 -36 -20 -36 -24 0 -4 -8 -8 -18 -8 -9 0 -29 -11
-44 -25 -15 -14 -33 -25 -40 -25 -8 0 -26 -14 -41 -31 -20 -23 -27 -27 -27
-14 0 14 -6 16 -32 11 -17 -3 -45 -13 -62 -21 -19 -10 -32 -12 -34 -5 -5 15
-23 12 -39 -7 -10 -12 -12 -13 -8 -3 4 8 -1 6 -9 -4 -9 -11 -16 -23 -16 -28 0
-13 18 -9 23 5 4 9 7 9 15 -1 5 -7 16 -10 27 -6 13 5 16 4 11 -4 -4 -7 -3 -12
1 -12 5 0 9 -11 9 -24 0 -20 -3 -23 -17 -16 -26 14 -45 -55 -29 -104 10 -30
14 -35 26 -25 7 6 11 16 7 22 -3 6 -1 7 5 3 7 -4 12 -2 12 5 0 7 3 9 7 6 4 -4
20 5 36 20 17 16 26 22 22 14 -5 -9 -4 -12 3 -7 16 10 -8 46 -30 46 -31 0 -19
15 13 16 20 1 29 -3 25 -12 -6 -16 17 -25 35 -12 11 8 11 9 -3 4 -12 -3 -7 8
15 38 27 36 34 40 43 27 7 -8 10 -26 7 -40 -3 -21 -2 -23 12 -11 14 12 14 15
-1 37 -15 24 -15 25 5 18 15 -4 21 -2 21 9 0 8 5 18 12 22 7 4 8 3 4 -4 -4 -7
-3 -12 3 -12 5 0 13 5 16 10 3 6 11 10 17 10 6 0 3 -10 -8 -22 -10 -12 -13
-18 -5 -13 10 6 13 4 9 -7 -8 -19 0 -29 35 -47 15 -8 27 -21 27 -28 0 -8 -4
-11 -10 -8 -5 3 -10 2 -10 -4 0 -17 24 -19 42 -4 17 15 43 9 33 -8 -3 -5 1 -6
9 -3 9 3 14 9 11 13 -2 4 4 15 15 24 17 14 19 14 17 -3 -1 -10 -5 -16 -9 -14
-4 3 -8 1 -8 -5 0 -5 -12 -23 -27 -38 -14 -15 -23 -22 -19 -15 4 7 2 12 -5 12
-6 0 -9 -8 -6 -19 3 -12 -1 -22 -10 -25 -21 -9 -23 -8 -17 9 5 13 2 14 -21 5
-23 -9 -26 -8 -21 5 3 8 1 15 -4 15 -6 0 -10 -4 -10 -10 0 -5 -8 -10 -17 -10
-14 0 -15 2 -4 9 8 5 12 18 8 30 -3 12 -1 21 4 21 5 0 9 5 9 11 0 8 -4 8 -14
-1 -8 -6 -12 -18 -9 -26 3 -8 0 -14 -6 -14 -11 0 -15 12 -12 40 1 10 -3 8 -11
-5 -15 -24 -35 -29 -35 -10 0 8 4 12 9 9 4 -3 11 2 14 10 3 9 12 16 19 16 7 0
16 7 19 16 10 27 7 27 -20 1 -14 -14 -32 -23 -40 -20 -8 3 -14 0 -14 -6 0 -6
-5 -11 -11 -11 -8 0 -8 4 0 14 8 10 9 16 1 21 -9 6 -11 1 -14 -32 -1 -7 -8
-21 -17 -31 -8 -10 -13 -24 -11 -32 3 -8 1 -12 -3 -8 -9 8 -35 -15 -35 -31 0
-6 -6 -11 -13 -11 -8 0 -19 -12 -26 -26 -11 -24 -10 -26 9 -21 23 6 25 -7 9
-50 -8 -23 -8 -26 2 -15 15 14 29 16 29 3 0 -5 -9 -13 -20 -16 -24 -8 -26 -21
-4 -29 8 -3 12 -2 9 4 -8 12 5 13 24 1 11 -7 10 -10 -5 -15 -11 -3 -24 -17
-30 -31 -11 -23 -10 -24 7 -14 11 5 17 14 14 19 -3 4 5 6 17 2 16 -4 18 -7 8
-10 -8 -3 -19 -11 -23 -18 -4 -8 -15 -14 -22 -14 -8 0 -15 -6 -16 -12 0 -7 -3
-5 -7 4 -6 15 -9 15 -27 1 -15 -12 -16 -14 -3 -10 11 4 15 2 12 -7 -3 -8 -15
-11 -29 -8 -18 3 -23 9 -20 26 4 21 4 21 -12 -1 -8 -13 -20 -23 -25 -23 -6 0
-5 7 2 15 9 11 9 15 1 15 -7 0 -9 5 -6 10 3 6 2 10 -3 10 -16 0 -23 30 -11 52
9 16 8 19 -2 13 -9 -6 -11 -3 -6 8 4 11 1 17 -8 17 -8 0 -15 5 -15 11 0 8 -4
8 -14 0 -11 -10 -14 -3 -13 36 1 48 -28 142 -47 155 -7 5 -5 8 5 8 8 0 20 -5
26 -11 7 -7 15 -5 27 6 9 9 16 12 16 7 0 -6 7 -13 16 -16 8 -3 12 -2 9 4 -3 6
-2 10 3 10 5 0 14 17 20 37 9 28 8 40 -1 52 -10 12 -9 14 5 8 12 -4 15 -2 11
9 -6 16 -12 17 -32 5 -12 -8 -13 -12 -1 -25 11 -14 10 -16 -5 -10 -16 7 -17 3
-12 -27 4 -22 3 -29 -2 -19 -14 23 -20 79 -11 85 20 12 -2 31 -29 27 -27 -4
-28 -6 -21 -32 8 -27 7 -28 -21 -25 -16 2 -29 0 -29 -6 0 -15 -42 17 -57 43
-9 18 -12 19 -13 6 0 -9 -10 -18 -22 -20 -15 -2 -24 -10 -24 -23 -1 -11 -2
-26 -3 -34 -1 -11 -4 -11 -16 -1 -24 20 -27 6 -5 -20 11 -13 20 -29 20 -37 0
-7 5 -13 10 -13 6 0 10 -7 10 -15 0 -8 6 -15 14 -15 7 0 21 -15 30 -32 9 -20
16 -26 16 -15 0 14 3 15 19 5 31 -19 56 -209 31 -234 -6 -6 -6 -15 0 -24 8
-13 10 -13 10 2 0 9 5 20 11 24 8 4 9 -1 4 -16 -5 -17 -4 -20 5 -15 8 5 11 3
8 -6 -3 -8 -15 -13 -26 -13 -12 1 -22 -4 -22 -10 0 -6 -5 -4 -10 4 -8 13 -10
13 -10 -2 0 -12 -6 -15 -22 -10 -21 5 -22 4 -9 -11 9 -11 10 -17 2 -17 -6 0
-11 -9 -11 -20 0 -11 4 -20 9 -20 10 0 9 -31 -3 -66 -5 -16 -2 -23 12 -26 14
-4 19 -15 19 -44 0 -22 5 -71 12 -111 6 -39 8 -79 5 -88 -10 -25 15 -63 49
-75 30 -10 53 2 41 22 -7 11 4 10 28 -3 11 -6 35 -13 52 -16 45 -6 89 -25 103
-44 8 -11 21 -15 39 -11 22 4 26 2 21 -12 -5 -14 2 -16 53 -16 33 0 60 4 60 9
0 15 33 6 38 -10 3 -8 1 -11 -3 -7 -10 10 -47 -11 -40 -22 3 -5 12 -7 19 -4 8
3 17 0 22 -7 4 -7 2 -15 -5 -17 -9 -3 -9 -7 0 -18 6 -8 15 -11 20 -8 5 3 9 3
9 -1 0 -3 -10 -10 -22 -15 -16 -6 -18 -9 -6 -9 20 -1 13 -41 -8 -41 -7 0 -16
-5 -19 -10 -4 -7 3 -9 22 -4 27 6 27 6 8 -9 -16 -13 -17 -16 -4 -17 9 0 24 9
34 20 10 11 25 20 34 20 13 0 13 -2 3 -9 -11 -7 -11 -11 2 -23 8 -9 13 -26 10
-39 -2 -13 -2 -18 2 -11 7 15 34 15 54 1 12 -8 10 -9 -7 -4 -26 7 -28 3 -13
-26 8 -13 7 -19 0 -19 -6 0 -18 -7 -26 -15 -9 -8 -11 -15 -6 -15 5 0 12 -9 15
-20 3 -12 11 -18 19 -15 8 3 25 1 39 -4 18 -7 20 -10 6 -10 -10 -1 -16 -5 -12
-10 3 -6 -1 -14 -10 -18 -10 -6 22 -15 93 -27 59 -10 140 -28 180 -41 40 -13
80 -21 88 -18 8 3 14 0 14 -6 0 -6 7 -11 15 -11 8 0 15 -4 15 -10 0 -5 13 -10
29 -10 16 0 31 -5 33 -11 2 -6 36 -17 76 -24 39 -6 69 -8 66 -3 -3 4 1 8 8 8
8 0 15 12 16 27 1 15 5 29 10 32 6 5 10 44 12 135 1 11 -5 23 -12 27 -10 7 -9
9 3 9 22 0 32 37 12 44 -12 5 -12 8 1 22 12 11 13 20 6 34 -13 24 -13 33 0 25
6 -3 7 1 4 9 -3 9 -11 16 -17 16 -6 0 -2 6 9 14 15 12 17 17 7 27 -14 14 -18
33 -5 26 4 -3 5 19 4 49 -2 30 -8 52 -13 48 -5 -3 -9 0 -9 5 0 6 6 11 13 11 9
0 8 3 -2 9 -7 5 -11 14 -7 20 7 11 -11 88 -26 108 -12 16 -32 125 -49 273 -4
31 1 50 14 50 37 0 68 75 87 210 7 47 15 105 19 130 8 56 3 102 -10 94 -7 -4
-7 0 0 12 5 11 18 49 28 87 10 37 21 67 24 67 9 0 17 34 24 96 3 27 10 82 15
123 22 160 23 275 5 356 -13 61 -21 78 -37 83 -14 3 -16 7 -8 12 7 4 9 13 6
19 -8 12 -8 12 -53 -2z m-821 -1167 c5 -11 7 -10 7 5 1 17 3 17 11 5 5 -8 10
-10 10 -5 0 6 15 10 33 11 32 0 34 -1 32 -32 -2 -29 1 -34 26 -39 20 -5 31
-15 35 -31 3 -13 10 -24 15 -24 5 0 9 -4 9 -10 0 -13 -22 -8 -35 8 -6 8 -18
13 -26 11 -24 -4 -73 13 -90 33 -10 11 -23 16 -33 12 -12 -4 -15 -2 -11 9 5
11 0 14 -22 11 -15 -2 -22 -1 -15 2 17 8 15 25 -3 18 -23 -9 -41 7 -22 20 22
17 71 14 79 -4z"/>
<path d="M7355 6273 c-4 -18 -11 -33 -16 -33 -5 0 -9 -16 -9 -35 0 -46 36 -47
53 -2 7 20 53 23 59 5 3 -7 2 -24 -2 -38 -6 -24 -6 -24 -18 -5 -6 11 -12 15
-12 10 0 -6 6 -20 14 -31 11 -15 12 -31 5 -67 -4 -26 -7 -71 -5 -99 2 -29 -2
-73 -10 -98 -16 -53 -18 -84 -4 -75 6 4 10 -5 10 -20 0 -15 4 -24 10 -20 6 4
8 11 5 16 -3 5 1 6 9 3 17 -7 17 -6 20 72 2 27 6 56 10 62 4 7 3 12 -2 12 -11
0 -9 80 2 98 4 7 4 18 -1 25 -14 18 -7 118 10 134 12 13 16 12 31 -2 14 -15
21 -36 17 -58 -1 -4 5 -14 13 -22 12 -12 14 -7 15 41 0 30 4 62 9 70 11 19 -7
64 -25 64 -7 0 -13 -8 -13 -17 0 -13 -3 -14 -12 -5 -8 8 -8 15 1 25 9 12 7 13
-14 9 -29 -5 -32 -23 -9 -46 8 -9 12 -20 9 -26 -8 -14 -25 -3 -25 16 0 16 -23
44 -35 44 -4 0 -5 -6 -2 -14 4 -10 0 -12 -15 -8 -15 4 -17 7 -6 13 9 6 2 9
-19 9 -17 0 -34 6 -36 13 -3 6 -8 -3 -12 -20z"/>
<path d="M6768 5680 c-15 -11 -30 -20 -35 -20 -23 -1 -62 -49 -73 -90 -7 -25
-21 -64 -31 -88 -11 -24 -17 -51 -14 -62 3 -10 2 -21 -3 -24 -12 -7 -14 -76
-2 -76 6 0 10 -6 10 -12 1 -22 82 -65 134 -72 l49 -6 -23 20 c-13 11 -26 20
-30 20 -16 0 -80 72 -80 90 0 10 -5 22 -11 26 -11 6 -7 75 6 107 4 9 15 17 24
17 9 0 34 9 56 20 70 36 91 23 60 -36 -19 -36 -19 -85 -2 -127 20 -46 39 -59
68 -48 13 5 17 10 9 11 -10 0 -11 3 -4 8 6 4 14 20 18 35 5 22 11 27 24 23 13
-5 13 -3 -2 9 -11 8 -14 15 -8 15 13 0 12 26 -1 48 -5 7 -4 12 2 12 6 0 11 -5
11 -10 0 -6 7 -6 19 2 10 6 17 18 14 25 -3 7 2 13 11 13 9 0 16 5 16 10 0 6
-5 10 -11 10 -5 0 -7 5 -4 10 12 20 51 10 65 -15 12 -23 30 -34 30 -19 0 15
-47 90 -64 103 -11 8 -27 22 -35 30 -22 22 -88 50 -132 56 -26 4 -42 0 -61
-15z"/>
<path d="M7580 5032 c0 -4 -12 -8 -26 -9 -15 0 -29 -5 -33 -10 -7 -10 -48 -19
-97 -22 -6 -1 -24 -13 -40 -27 -26 -25 -58 -32 -151 -37 -21 -1 -14 -17 7 -17
11 0 20 -5 20 -11 0 -6 7 -9 15 -5 8 3 19 -2 24 -12 6 -9 11 -13 11 -9 0 4 9
3 21 -3 27 -15 49 3 49 41 0 34 15 39 23 8 4 -13 11 -19 19 -16 9 3 14 -3 15
-14 1 -11 -2 -17 -8 -14 -5 4 -8 -11 -6 -34 2 -23 -1 -41 -6 -41 -5 0 -6 -8
-3 -17 4 -9 1 -20 -5 -24 -7 -4 -9 -14 -4 -25 5 -11 7 -25 6 -31 -1 -7 4 -13
11 -13 8 0 15 -10 17 -22 11 -74 -5 -125 -48 -149 -21 -12 -28 -23 -26 -40 2
-20 -2 -24 -26 -26 -16 -1 -38 -8 -49 -16 -18 -13 -16 -14 25 -13 25 1 45 4
45 9 0 4 6 7 14 7 8 0 16 4 18 10 2 5 14 7 26 3 18 -4 20 -8 10 -14 -10 -7 -9
-9 4 -9 9 0 18 4 20 9 2 5 14 1 27 -10 21 -17 22 -22 10 -30 -9 -5 -10 -9 -2
-9 6 0 15 5 18 10 4 6 11 8 16 5 5 -3 6 0 4 7 -8 20 38 17 59 -4 10 -10 13
-18 7 -18 -5 0 -13 5 -16 10 -3 6 -13 10 -21 10 -12 0 -12 -4 3 -23 17 -23 18
-23 37 -5 24 22 40 19 44 -8 2 -10 8 -23 14 -29 6 -7 7 0 4 20 -4 17 -3 24 0
17 3 -6 10 -10 14 -7 5 3 18 -4 29 -16 11 -12 24 -18 29 -15 12 7 62 -13 62
-26 0 -14 38 -9 44 7 3 10 -3 17 -19 21 -14 3 -23 10 -20 14 5 8 -107 88 -113
80 -2 -3 -8 3 -13 13 -6 9 -19 17 -30 17 -11 0 -22 7 -25 15 -4 8 -10 12 -16
9 -12 -8 -118 62 -119 79 -1 6 -3 26 -5 42 -9 90 18 146 86 180 19 10 39 24
43 31 4 8 15 14 22 14 8 0 15 4 15 9 0 5 15 12 33 16 17 4 26 9 20 12 -8 3 -1
17 21 41 39 41 37 54 -8 52 -48 -3 -66 -1 -65 8 3 20 -2 32 -16 32 -8 0 -15 4
-15 9 0 5 -7 11 -15 15 -8 3 -15 2 -15 -2z"/>
<path d="M10156 4155 c18 -15 17 -16 -16 -10 -26 4 -30 3 -15 -4 11 -5 28 -19
38 -30 10 -12 23 -19 29 -15 7 4 8 3 4 -4 -4 -7 -2 -12 4 -12 7 0 9 -7 6 -16
-3 -8 -2 -13 2 -10 4 3 13 -4 19 -14 10 -15 9 -17 -10 -13 -13 3 -18 1 -11 -4
17 -13 24 -41 11 -46 -7 -3 -1 -9 13 -15 l25 -11 -25 0 c-15 -1 -31 4 -38 11
-8 8 -12 8 -12 1 0 -6 16 -21 36 -32 20 -12 33 -25 29 -29 -4 -4 -10 -1 -12 6
-5 14 -23 16 -23 3 0 -5 10 -13 23 -17 35 -11 67 -35 61 -46 -4 -6 -9 -7 -13
-1 -9 15 -47 22 -62 11 -12 -7 -11 -9 1 -7 32 3 47 -1 47 -15 0 -8 -8 -12 -21
-9 -12 2 -3 -5 19 -16 45 -22 45 -25 -3 -12 -36 11 -39 9 -16 -13 18 -18 7
-20 -31 -6 l-26 10 18 -24 c10 -13 21 -22 26 -19 7 4 11 -12 8 -30 -1 -5 3 -6
9 -2 5 3 19 0 29 -7 17 -12 10 -14 -51 -13 -68 1 -70 0 -39 -12 18 -8 29 -18
26 -23 -3 -5 4 -14 15 -20 16 -8 19 -15 11 -24 -6 -7 -7 -17 -3 -22 4 -5 -3 0
-16 10 -35 30 -37 12 -3 -23 38 -38 39 -45 6 -37 -19 5 -25 2 -25 -10 0 -19
24 -44 42 -44 10 0 10 -3 -2 -9 -8 -6 -19 -7 -25 -3 -5 3 -4 -2 4 -11 15 -19
1 -23 -17 -5 -6 6 -14 9 -17 6 -3 -3 1 -13 10 -21 17 -18 20 -47 4 -47 -6 0
-7 -5 -2 -12 11 -18 10 -69 -1 -58 -15 15 -37 0 -27 -19 6 -9 6 -23 1 -30 -4
-8 0 -30 10 -55 14 -29 16 -44 8 -53 -8 -10 -6 -19 8 -36 19 -22 19 -22 -2 -4
-11 9 -24 14 -29 10 -4 -5 -6 -3 -2 2 3 6 -2 16 -12 22 -16 10 -17 8 -13 -15
4 -23 17 -44 62 -99 6 -7 10 -17 10 -23 0 -5 5 -10 10 -10 6 0 10 -7 10 -15 0
-9 6 -12 17 -8 12 5 15 2 10 -10 -4 -11 -1 -17 7 -17 7 0 25 -19 40 -42 26
-40 26 -41 4 -22 -37 33 -45 36 -44 12 1 -15 16 -30 46 -48 25 -14 46 -32 46
-38 1 -7 3 -15 4 -19 1 -5 2 -11 1 -15 0 -5 3 -8 9 -8 5 0 7 -6 4 -14 -3 -9 3
-17 16 -21 16 -5 19 -12 15 -28 -4 -15 -3 -18 3 -9 7 11 10 10 16 -3 3 -9 10
-13 16 -10 5 3 10 1 10 -4 0 -6 -7 -11 -15 -11 -25 0 -17 -37 9 -44 17 -4 26
-15 31 -37 5 -23 10 -28 18 -20 16 16 32 14 19 -2 -8 -10 -6 -17 8 -27 18 -13
18 -14 -6 -26 -17 -9 -32 -10 -50 -4 -17 7 -23 7 -19 0 3 -6 14 -10 23 -11 10
-1 7 -4 -8 -8 -24 -7 -23 -8 18 -24 48 -19 47 -41 -1 -33 l-32 6 28 -11 c17
-7 27 -18 27 -30 0 -11 -5 -17 -10 -14 -6 4 -8 10 -5 15 3 4 -5 5 -17 2 -21
-6 -21 -7 -4 -10 15 -3 16 -6 5 -13 -11 -7 -11 -9 4 -9 9 0 16 -3 16 -7 -1 -5
0 -12 1 -18 2 -5 3 -21 4 -35 1 -19 6 -24 21 -23 18 3 18 2 3 -9 -15 -11 -12
-14 20 -30 20 -10 28 -15 17 -12 -58 18 -58 18 -53 -9 4 -20 1 -24 -11 -20 -9
2 -3 -7 14 -21 27 -24 28 -25 6 -19 -18 5 -22 3 -16 -7 5 -9 4 -11 -4 -6 -6 4
-9 12 -6 17 4 5 -3 9 -14 9 -11 0 -23 5 -26 10 -3 6 -12 10 -18 9 -9 0 -9 -2
1 -6 6 -2 12 -11 12 -19 0 -8 -6 -14 -12 -14 -7 0 2 -9 20 -20 18 -11 30 -24
27 -29 -3 -5 1 -12 7 -14 8 -3 6 -6 -4 -6 -22 -1 -23 -15 -2 -35 8 -9 12 -16
8 -16 -3 0 0 -8 7 -17 11 -15 10 -14 -9 1 -23 20 -31 10 -9 -13 10 -11 8 -13
-10 -8 -26 6 -30 -1 -8 -17 11 -8 12 -15 4 -26 -8 -11 -12 -12 -16 -2 -2 6 -9
12 -15 12 -7 0 -6 -5 1 -14 9 -10 9 -16 1 -21 -7 -4 -8 -11 -1 -18 10 -13 11
-17 11 -44 0 -9 3 -13 7 -9 4 3 12 -6 18 -21 10 -23 9 -30 -4 -39 -12 -10 -13
-16 -4 -37 10 -22 10 -25 -4 -20 -12 5 -14 1 -9 -18 3 -13 3 -18 0 -11 -13 27
-21 9 -22 -48 -1 -66 -9 -103 -22 -95 -4 3 -4 -12 1 -33 11 -46 10 -63 -1 -37
-5 13 -7 -4 -4 -45 3 -35 10 -68 17 -72 7 -5 1 -8 -15 -8 -32 0 -35 -11 -13
-43 8 -12 15 -36 17 -53 2 -27 5 -30 27 -26 15 3 35 12 45 21 14 11 17 12 11
2 -6 -11 -4 -13 9 -8 10 4 15 3 11 -3 -3 -6 -13 -10 -21 -10 -18 0 -15 -32 4
-36 7 -1 8 0 2 3 -15 7 -12 23 3 23 8 0 19 -17 25 -38 7 -22 23 -44 39 -55 22
-14 24 -17 8 -15 -14 2 -21 -4 -23 -21 -2 -15 0 -21 7 -16 6 3 8 12 5 18 -5 8
-3 8 7 0 7 -7 20 -13 29 -13 13 0 13 1 0 10 -11 7 -12 10 -2 10 8 0 12 6 9 12
-2 7 3 18 12 25 11 8 12 12 4 13 -7 0 -13 7 -13 15 0 11 5 10 21 -6 12 -12 18
-27 15 -37 -5 -13 -2 -12 10 3 11 14 15 15 14 5 -4 -30 0 -47 13 -47 8 0 13
11 12 27 -1 19 3 26 17 26 10 0 18 -4 18 -9 0 -4 4 -6 9 -2 5 3 13 0 16 -6 4
-5 12 -8 19 -6 8 3 11 -5 10 -23 -2 -30 5 -44 24 -48 8 -1 11 5 6 22 -3 13 -1
27 5 30 6 4 11 2 11 -5 0 -10 3 -10 12 -1 10 10 15 4 24 -25 7 -21 12 -30 13
-20 1 11 5 15 13 11 8 -5 9 -1 4 12 -11 29 9 5 31 -38 19 -34 20 -35 33 -17
11 14 16 15 22 6 5 -8 8 -5 6 8 0 11 0 29 1 40 2 18 3 18 12 -3 5 -13 13 -21
18 -18 11 7 23 -22 15 -35 -3 -5 0 -17 5 -26 9 -15 10 -12 11 16 0 32 1 33 14
16 8 -11 19 -16 30 -12 10 4 16 1 16 -6 0 -7 7 -22 16 -33 8 -10 13 -14 10 -9
-19 40 98 67 142 32 9 -7 18 -5 30 8 16 17 16 17 -3 11 -15 -5 -17 -4 -9 4 9
9 17 9 32 1 30 -16 49 -14 27 3 -18 13 -18 14 8 9 30 -6 31 -5 17 32 l-10 26
31 -22 c26 -18 33 -19 40 -8 8 13 13 6 10 -13 0 -4 6 -5 14 -2 13 5 13 8 0 21
-21 20 -19 24 10 17 14 -3 25 -2 25 4 0 6 13 7 34 2 19 -4 40 -4 47 0 7 5 19
6 28 3 11 -4 10 -1 -3 9 -18 14 -17 15 13 21 18 4 30 10 27 15 -2 4 0 14 5 22
7 13 10 13 18 1 6 -9 11 -10 15 -2 4 6 4 11 1 11 -4 0 0 7 9 15 17 17 42 20
51 5 9 -15 25 -12 19 4 -7 18 13 31 29 18 9 -8 12 -3 14 16 0 15 -4 31 -10 35
-7 5 0 6 16 3 18 -4 26 -2 25 5 -2 6 3 14 11 17 8 3 11 0 7 -7 -5 -7 -1 -8 10
-4 11 4 13 8 6 11 -21 7 -13 20 13 20 30 0 36 4 39 29 2 11 13 19 30 21 14 2
24 7 21 12 -3 5 8 8 23 8 32 -1 52 8 52 23 0 6 -5 7 -12 3 -7 -5 -8 -3 -4 5 5
7 14 10 22 7 8 -3 14 -1 14 4 0 6 4 10 10 10 5 0 7 -8 4 -18 -5 -15 -4 -15 6
1 10 15 20 18 49 13 26 -5 32 -4 21 3 -12 8 -8 11 18 11 18 0 40 7 49 15 8 8
20 12 26 9 8 -5 8 -2 0 7 -21 22 -15 29 13 17 22 -10 28 -9 42 8 10 11 27 19
40 18 25 -1 28 6 10 25 -9 9 -9 12 -1 7 6 -3 14 0 16 6 3 8 6 9 6 2 1 -14 51
-6 51 8 0 5 12 8 28 7 40 -3 87 11 70 22 -19 12 -30 11 -22 -2 4 -7 1 -10 -6
-7 -8 2 -14 14 -15 26 -1 18 1 19 18 10 11 -5 30 -8 43 -5 14 2 27 1 30 -4 5
-9 59 -5 86 6 15 6 78 -19 78 -31 0 -3 -4 -2 -10 1 -21 13 -9 -8 15 -27 33
-26 32 -42 -1 -34 -17 5 -23 3 -19 -4 7 -11 44 -13 69 -4 14 5 16 58 16 484 0
314 -4 481 -10 485 -6 4 -8 10 -6 14 6 10 -30 43 -109 101 -33 24 -98 81 -144
127 -46 46 -88 83 -92 83 -5 0 -9 6 -9 13 0 6 -20 24 -43 39 -39 26 -137 99
-181 135 -10 8 -40 26 -65 40 -25 13 -66 37 -91 53 -25 16 -57 36 -72 45 -15
8 -38 25 -52 37 -25 24 -63 44 -181 99 -38 18 -78 39 -89 48 -10 9 -20 15 -22
13 -2 -1 -17 4 -32 12 -15 7 -38 17 -52 21 -14 4 -38 17 -55 29 -42 30 -239
126 -259 126 -9 0 -16 5 -16 11 0 5 -4 7 -10 4 -5 -3 -10 -3 -10 2 0 9 -42 29
-83 39 -16 4 -39 17 -53 30 -13 14 -37 27 -54 30 -16 4 -30 11 -30 16 0 5 -6
8 -12 6 -13 -5 -38 14 -38 29 0 4 -19 16 -43 26 -23 9 -59 33 -80 52 -21 19
-42 35 -47 35 -5 0 -22 13 -37 29 -15 16 -64 47 -108 69 -88 45 -254 122 -262
122 -11 0 -98 45 -101 53 -2 4 -8 7 -13 7 -5 0 -27 11 -49 25 -44 28 -64 33
-34 10z"/>
<path d="M12645 1306 c20 -10 24 -15 13 -16 -20 0 -24 -15 -6 -26 6 -4 8 -3 5
3 -7 11 22 28 31 18 3 -3 0 -5 -6 -5 -6 0 -9 -8 -7 -18 5 -29 -49 -48 -92 -32
-26 9 -38 9 -46 1 -8 -8 -8 -11 1 -12 7 -1 17 -3 22 -4 6 -1 21 -3 35 -4 14 0
25 -6 25 -12 0 -8 -13 -10 -37 -6 -21 3 -33 3 -26 0 7 -2 9 -11 6 -19 -4 -10
-8 -12 -12 -5 -4 5 -23 12 -44 14 -20 2 -34 0 -31 -4 3 -5 20 -10 37 -10 l32
-2 -35 -6 c-28 -5 -31 -8 -17 -14 10 -4 28 -7 40 -7 12 0 29 -5 37 -11 13 -9
13 -10 0 -8 -22 3 -51 -12 -44 -22 6 -10 -19 -12 -30 -2 -3 4 -14 8 -24 9 -9
1 -26 4 -37 7 -11 2 -14 2 -7 0 6 -3 12 -12 11 -21 0 -11 -2 -12 -6 -4 -8 20
-22 14 -16 -8 5 -18 3 -19 -21 -10 -38 14 -39 13 -32 -14 5 -22 3 -24 -16 -21
-36 7 -61 -4 -48 -20 8 -10 7 -14 -7 -18 -14 -4 -13 -5 5 -6 12 0 22 -5 22
-11 0 -5 -7 -6 -17 -3 -10 4 -14 2 -9 -5 4 -7 -7 -12 -31 -14 l-38 -4 35 -11
35 -12 -55 1 c-78 1 -89 -1 -65 -13 16 -7 13 -8 -10 -3 -16 3 -52 8 -80 11
l-50 6 30 -30 c17 -17 34 -28 39 -25 5 3 7 -2 3 -11 -3 -10 -2 -17 4 -17 6 0
8 -4 4 -9 -3 -6 3 -14 12 -20 10 -6 12 -11 6 -11 -7 0 -13 -5 -13 -11 0 -5 5
-7 12 -3 7 5 8 3 3 -6 -5 -8 -1 -18 10 -27 14 -9 15 -13 4 -13 -9 0 -10 -3 -3
-8 16 -11 23 -37 14 -52 -10 -16 23 -73 57 -100 19 -15 21 -20 9 -20 -9 0 -16
-4 -16 -8 0 -18 -41 -5 -68 21 -15 15 -33 27 -39 27 -7 0 -15 5 -19 12 -4 7
-3 8 4 4 17 -10 15 9 -1 23 -8 6 -17 7 -21 3 -4 -4 -6 -1 -4 7 2 10 -7 16 -27
17 l-30 3 25 -20 c24 -19 23 -19 -18 1 -23 11 -41 24 -38 28 2 4 -7 8 -20 8
-23 2 -22 0 9 -25 19 -14 32 -32 29 -40 -3 -10 1 -12 16 -9 13 4 23 0 26 -8 3
-8 1 -14 -5 -14 -6 0 -7 -5 -4 -10 5 -8 12 -7 23 2 10 8 13 9 9 1 -4 -6 4 -20
19 -32 15 -12 21 -21 15 -21 -6 0 -3 -10 8 -22 11 -11 18 -25 15 -29 -2 -4 4
-12 13 -18 10 -6 14 -11 10 -11 -4 0 -19 7 -32 16 -13 9 -29 13 -36 9 -6 -4
-15 -1 -20 6 -4 7 -11 10 -16 6 -9 -9 65 -77 84 -77 7 0 10 -6 7 -15 -4 -10 0
-15 14 -15 11 0 28 -3 38 -7 13 -5 15 -3 9 8 -7 12 -5 12 6 1 12 -11 12 -14
-1 -22 -13 -8 -13 -10 -1 -10 20 0 3 -16 -27 -25 -26 -7 -28 15 -2 27 9 4 0 7
-20 7 -19 -1 -29 -3 -22 -6 27 -11 10 -20 -23 -13 -30 7 -35 5 -35 -11 0 -20
-25 -25 -49 -10 -19 12 -44 2 -32 -13 5 -6 9 -15 9 -20 0 -9 51 -46 64 -46 3
0 4 10 1 23 -4 21 -4 21 9 2 9 -13 23 -20 43 -19 17 1 37 -3 45 -10 10 -7 9
-4 -2 10 -17 19 -16 20 11 31 17 6 35 7 42 2 18 -11 62 -11 75 0 5 5 20 12 34
15 l25 7 -25 -15 c-24 -15 -23 -15 20 -8 62 9 134 6 138 -6 2 -7 14 -7 34 -1
18 5 27 5 22 0 -16 -15 -68 -27 -111 -27 -24 1 -38 -3 -33 -8 5 -5 48 -9 97
-9 58 0 74 -2 48 -6 -62 -9 -19 -21 99 -26 56 -3 119 -8 141 -11 30 -4 36 -3
25 5 -10 7 -11 11 -2 11 9 0 12 115 12 540 0 507 -1 540 -17 541 -10 1 -30 3
-45 5 -19 2 -28 -2 -28 -12 0 -10 -5 -9 -20 6 -11 11 -24 20 -29 20 -5 0 -18
2 -28 5 -10 3 -4 -1 12 -9z"/>
<path d="M10474 302 c-3 -15 -7 -35 -9 -44 -1 -10 2 -16 8 -15 7 1 10 -12 8
-35 -1 -21 2 -38 7 -38 15 0 25 -51 13 -63 -14 -14 -14 -27 -1 -27 6 0 10 7
10 15 0 8 5 15 10 15 16 0 12 -27 -6 -34 -8 -3 -12 -10 -9 -16 3 -5 1 -10 -5
-10 -6 0 -8 -5 -4 -12 5 -7 2 -9 -7 -6 -10 4 -15 -1 -15 -13 0 -14 8 -19 28
-19 25 0 33 9 29 33 0 4 4 7 10 7 5 0 7 5 4 10 -3 6 2 10 11 10 14 0 15 3 7
11 -7 7 -9 25 -6 40 3 16 0 35 -6 43 -18 21 -23 59 -7 53 9 -4 13 2 12 16 -1
14 -8 22 -19 21 -13 -1 -17 6 -17 36 0 29 -4 39 -20 43 -16 4 -21 -1 -26 -21z"/>
</g>
</svg>
